<svg width="24" height="18" viewBox="0 0 24 18" fill="none" xmlns="http://www.w3.org/2000/svg">
<path fill-rule="evenodd" clip-rule="evenodd" d="M0 8.76092C0 8.96117 0.0824986 9.15242 0.219749 9.29642L7.644 16.7957C7.93725 17.0919 8.412 17.0912 8.7045 16.7957C8.99775 16.5002 8.99775 16.0202 8.7045 15.7247L2.55975 9.51842H23.25C23.664 9.51842 24 9.17942 24 8.76092C24 8.34242 23.664 8.00343 23.25 8.00343H2.5605L8.7045 1.79718C8.99775 1.50168 8.997 1.02168 8.7045 0.726175C8.41125 0.430676 7.9365 0.430676 7.644 0.726175L0.219749 8.22542C0.0795002 8.36718 0.00225067 8.56217 0 8.76092Z" fill="#E4E4E7" fill-opacity="0.8"/>
</svg>