<svg width="16" height="16" viewBox="0 0 16 16" fill="none" xmlns="http://www.w3.org/2000/svg">
<path d="M14.9538 2.29034H12.9547C12.928 2.28107 12.9002 2.27506 12.872 2.27229H10.7435V0.506954C10.7436 0.374288 10.6916 0.24692 10.5989 0.152168C10.5061 0.0574247 10.3799 0.00276753 10.2474 0H5.21343C5.07896 0 4.95003 0.0533319 4.85504 0.148436C4.75994 0.243539 4.70648 0.372473 4.70648 0.506951V2.27228H2.58877C2.5606 2.27505 2.53279 2.28107 2.50607 2.29034H0.506942C0.325762 2.29034 0.158412 2.38689 0.0678977 2.54375C-0.0226326 2.70062 -0.0226326 2.89383 0.0678977 3.05069C0.158428 3.20755 0.325765 3.30423 0.506942 3.30423H2.13565L3.45171 15.547C3.46579 15.6716 3.52526 15.7866 3.61881 15.8702C3.71222 15.9538 3.83321 15.9999 3.95864 16H11.5092C11.6334 15.9982 11.7525 15.9511 11.8447 15.8678C11.9366 15.7844 11.995 15.6704 12.009 15.547L13.3249 3.3221H14.9537C15.1349 3.3221 15.3023 3.22555 15.3928 3.06868C15.4833 2.91182 15.4833 2.71849 15.3928 2.56174C15.3023 2.40488 15.1349 2.30821 14.9537 2.30821L14.9538 2.29034ZM5.73131 1.01389H9.72943V2.27228H5.73131V1.01389ZM11.0491 14.9788H4.41165L3.15326 3.32222H12.3074L11.0491 14.9788Z" fill="#E41D1D"/>
<path d="M7.73057 13.7943C7.86504 13.7943 7.99398 13.7409 8.08909 13.6459C8.18419 13.5508 8.23752 13.4219 8.23752 13.2874V5.01777C8.23752 4.83659 8.14097 4.66924 7.98411 4.57873C7.82725 4.48808 7.63391 4.48808 7.47705 4.57873C7.32019 4.66926 7.22363 4.8366 7.22363 5.01777V13.2874C7.22363 13.4219 7.27696 13.5508 7.37207 13.6459C7.46717 13.7409 7.59611 13.7943 7.73058 13.7943H7.73057Z" fill="#E41D1D"/>
<path d="M5.7348 13.7889H5.75634C5.89022 13.7833 6.01638 13.725 6.1074 13.6266C6.19829 13.5282 6.24669 13.3979 6.24175 13.264L5.93609 4.99438L5.93621 4.99426C5.93344 4.85882 5.87554 4.73025 5.77574 4.63851C5.67582 4.5469 5.54291 4.50007 5.40761 4.50886C5.27374 4.51452 5.14757 4.5729 5.05667 4.67126C4.96566 4.76961 4.91739 4.89999 4.9222 5.03387L5.22786 13.3035C5.23424 13.4339 5.29034 13.5569 5.38473 13.6472C5.47899 13.7373 5.60431 13.7881 5.7348 13.7889L5.7348 13.7889Z" fill="#E41D1D"/>
<path d="M9.70841 13.7891H9.72635C9.85998 13.7922 9.9894 13.7426 10.0869 13.6512C10.1843 13.5597 10.2421 13.4336 10.2477 13.3001L10.5534 5.03052H10.5533C10.5582 4.89665 10.5098 4.76627 10.4189 4.6679C10.3279 4.56955 10.2018 4.51116 10.0679 4.5055C9.93099 4.49142 9.79447 4.5356 9.69179 4.62733C9.5891 4.71895 9.52987 4.84968 9.52854 4.98742L9.21928 13.257H9.2194C9.21254 13.3927 9.26045 13.5255 9.35242 13.6255C9.44428 13.7256 9.57261 13.7846 9.70841 13.7891L9.70841 13.7891Z" fill="#E41D1D"/>
</svg>