<svg width="38" height="48" viewBox="0 0 38 48" fill="none" xmlns="http://www.w3.org/2000/svg">
<path d="M32.8462 18.6923H22.2308C20.2847 18.6923 18.6924 17.1 18.6924 15.1538V4.53846C18.6924 2.59231 20.2847 1 22.2308 1H32.8462C34.7924 1 36.3847 2.59231 36.3847 4.53846V15.1538C36.3847 17.1 34.7924 18.6923 32.8462 18.6923Z" stroke="#E4E4E7" stroke-opacity="0.4" stroke-width="2" stroke-miterlimit="10" stroke-linecap="round" stroke-linejoin="round"/>
<path d="M36.3846 9.84608V27.5384C36.3846 29.4845 34.7923 31.0768 32.8462 31.0768H4.53846C2.59231 31.0768 1 29.4845 1 27.5384V9.84608C1 7.89992 2.59231 6.30762 4.53846 6.30762H18.6923" stroke="#E4E4E7" stroke-opacity="0.4" stroke-width="2" stroke-miterlimit="10" stroke-linecap="round" stroke-linejoin="round"/>
<path d="M27.5385 13.3845C29.4927 13.3845 31.0769 11.8003 31.0769 9.84608C31.0769 7.89184 29.4927 6.30762 27.5385 6.30762C25.5842 6.30762 24 7.89184 24 9.84608C24 11.8003 25.5842 13.3845 27.5385 13.3845Z" stroke="#E4E4E7" stroke-opacity="0.4" stroke-width="2" stroke-miterlimit="10" stroke-linecap="round" stroke-linejoin="round"/>
<path d="M9.84638 25.7689C10.8235 25.7689 11.6156 24.9768 11.6156 23.9997C11.6156 23.0226 10.8235 22.2305 9.84638 22.2305C8.86926 22.2305 8.07715 23.0226 8.07715 23.9997C8.07715 24.9768 8.86926 25.7689 9.84638 25.7689Z" stroke="#E4E4E7" stroke-opacity="0.4" stroke-width="2" stroke-miterlimit="10" stroke-linecap="round" stroke-linejoin="round"/>
<path d="M13.3845 11.6152H6.30762V16.9229H13.3845V11.6152Z" stroke="#E4E4E7" stroke-opacity="0.4" stroke-width="2" stroke-miterlimit="10" stroke-linecap="round" stroke-linejoin="round"/>
<path d="M27.538 47H9.8457" stroke="#E4E4E7" stroke-opacity="0.4" stroke-width="2" stroke-miterlimit="10" stroke-linecap="round" stroke-linejoin="round"/>
<path d="M22.2312 31.0771V47.0002H15.1543V31.0771" stroke="#E4E4E7" stroke-opacity="0.4" stroke-width="2" stroke-miterlimit="10" stroke-linecap="round" stroke-linejoin="round"/>
<path d="M9.84645 1H2.76953V6.30769H9.84645V1Z" stroke="#E4E4E7" stroke-opacity="0.4" stroke-width="2" stroke-miterlimit="10" stroke-linecap="round" stroke-linejoin="round"/>
</svg>
