<svg width="36" height="31" viewBox="0 0 36 31" fill="none" xmlns="http://www.w3.org/2000/svg">
<path d="M19.3363 2.82426C18.5459 1.5421 16.6755 1.5607 15.9107 2.85832L1.77713 26.8404C0.991387 28.1737 1.9526 29.8559 3.50016 29.8559H32.4176C33.983 29.8559 34.9415 28.1389 34.1201 26.8064L19.3363 2.82426Z" stroke="#E4E4E7" stroke-opacity="0.8" stroke-miterlimit="10" stroke-linecap="round" stroke-linejoin="round"/>
<path d="M12.553 14.3311L12.7216 14.2037M12.7216 14.2037L13.0261 13.5864L14.9816 13C15.5388 13.3189 16.6785 13.9753 16.7794 14.0494C16.9055 14.142 16.8425 14.5432 17.0948 15.0062C17.3471 15.4691 17.8517 16.3333 17.9779 16.7037C18.0788 17 17.8097 17.6914 17.6625 18H16.054C15.8752 17.8663 15.4105 17.5988 14.9816 17.5988C14.5527 17.5988 13.8146 17.5988 13.4992 17.5988C13.3731 17.784 13.1586 17.9198 13.31 16.9815C12.5782 15.8951 12.2061 15.6029 12.1115 15.5926C12.0273 15.3251 11.9096 14.7593 12.1115 14.6358C12.3133 14.5123 12.6023 14.2963 12.7216 14.2037Z" stroke="#E4E4E7" stroke-opacity="0.8" stroke-width="0.5"/>
<path d="M20.553 20.3311L20.7216 20.2037M20.7216 20.2037L21.0261 19.5864L22.9816 19C23.5388 19.3189 24.6785 19.9753 24.7794 20.0494C24.9055 20.142 24.8425 20.5432 25.0948 21.0062C25.3471 21.4691 25.8517 22.3333 25.9779 22.7037C26.0788 23 25.8097 23.6914 25.6625 24H24.054C23.8752 23.8663 23.4105 23.5988 22.9816 23.5988C22.5527 23.5988 21.8146 23.5988 21.4992 23.5988C21.3731 23.784 21.1586 23.9198 21.31 22.9815C20.5782 21.8951 20.2061 21.6029 20.1115 21.5926C20.0273 21.3251 19.9096 20.7593 20.1115 20.6358C20.3133 20.5123 20.6023 20.2963 20.7216 20.2037Z" stroke="#E4E4E7" stroke-opacity="0.8" stroke-width="0.5"/>
<path d="M9.55301 22.3311L9.72159 22.2037M9.72159 22.2037L10.0261 21.5864L11.9816 21C12.5388 21.3189 13.6785 21.9753 13.7794 22.0494C13.9055 22.142 13.8425 22.5432 14.0948 23.0062C14.3471 23.4691 14.8517 24.3333 14.9779 24.7037C15.0788 25 14.8097 25.6914 14.6625 26H13.054C12.8752 25.8663 12.4105 25.5988 11.9816 25.5988C11.5527 25.5988 10.8146 25.5988 10.4992 25.5988C10.3731 25.784 10.1586 25.9198 10.31 24.9815C9.57825 23.8951 9.20608 23.6029 9.11146 23.5926C9.02735 23.3251 8.9096 22.7593 9.11146 22.6358C9.31331 22.5123 9.60232 22.2963 9.72159 22.2037Z" stroke="#E4E4E7" stroke-opacity="0.8" stroke-width="0.5"/>
<path d="M16.3687 22.7987L16.4811 22.7222M16.4811 22.7222L16.6841 22.3519L17.9877 22C18.3592 22.1914 19.119 22.5852 19.1863 22.6296C19.2704 22.6852 19.2283 22.9259 19.3965 23.2037C19.5647 23.4815 19.9012 24 19.9853 24.2222C20.0526 24.4 19.8731 24.8148 19.775 25H18.7026C18.5835 24.9198 18.2737 24.7593 17.9877 24.7593C17.7018 24.7593 17.2097 24.7593 16.9995 24.7593C16.9154 24.8704 16.7724 24.9519 16.8733 24.3889C16.3855 23.737 16.1374 23.5617 16.0743 23.5556C16.0182 23.3951 15.9397 23.0556 16.0743 22.9815C16.2089 22.9074 16.4015 22.7778 16.4811 22.7222Z" stroke="#E4E4E7" stroke-opacity="0.8" stroke-width="0.5"/>
<path d="M20.2765 14.7987L20.3608 14.7222M20.3608 14.7222L20.5131 14.3519L21.4908 14C21.7694 14.1914 22.3392 14.5852 22.3897 14.6296C22.4528 14.6852 22.4212 14.9259 22.5474 15.2037C22.6735 15.4815 22.9259 16 22.9889 16.2222C23.0394 16.4 22.9048 16.8148 22.8312 17H22.027C21.9376 16.9198 21.7053 16.7593 21.4908 16.7593C21.2763 16.7593 20.9073 16.7593 20.7496 16.7593C20.6865 16.8704 20.5793 16.9519 20.655 16.3889C20.2891 15.737 20.103 15.5617 20.0557 15.5556C20.0137 15.3951 19.9548 15.0556 20.0557 14.9815C20.1567 14.9074 20.3012 14.7778 20.3608 14.7222Z" stroke="#E4E4E7" stroke-opacity="0.8" stroke-width="0.5"/>
</svg>
