<svg width="7" height="10" viewBox="0 0 7 10" fill="none" xmlns="http://www.w3.org/2000/svg">
<path d="M0 3.56572C0 6.00185 2.93571 8.83659 3.0607 8.95614L3.19038 9.08L3.32006 8.95595C3.44504 8.83659 6.38075 6.00185 6.38075 3.56572C6.38075 1.92079 5.54525 0 3.19038 0C0.835503 0 0 1.92079 0 3.56572ZM6.00541 3.56572C6.00541 5.56289 3.75976 7.97594 3.19038 8.55546C2.62099 7.97594 0.375338 5.56289 0.375338 3.56572C0.375338 1.21347 1.82959 0.375338 3.19038 0.375338C4.55117 0.375338 6.00541 1.21347 6.00541 3.56572Z" fill="white"/>
<path d="M1.31348 3.00267C1.31348 4.03748 2.15536 4.87936 3.19017 4.87936C4.22498 4.87936 5.06686 4.03748 5.06686 3.00267C5.06686 1.96786 4.22498 1.12598 3.19017 1.12598C2.15536 1.12598 1.31348 1.96786 1.31348 3.00267ZM4.69152 3.00267C4.69152 3.83048 4.01798 4.50402 3.19017 4.50402C2.36236 4.50402 1.68882 3.83048 1.68882 3.00267C1.68882 2.17486 2.36236 1.50132 3.19017 1.50132C4.01798 1.50132 4.69152 2.17486 4.69152 3.00267Z" fill="white"/>
</svg>
