<svg width="35" height="30" viewBox="0 0 35 30" fill="none" xmlns="http://www.w3.org/2000/svg">
<path d="M19.3363 1.82426C18.5459 0.542099 16.6755 0.560696 15.9107 1.85832L1.77713 25.8404C0.991387 27.1737 1.9526 28.8559 3.50016 28.8559H32.4176C33.983 28.8559 34.9415 27.1389 34.1201 25.8064L19.3363 1.82426Z" stroke="#E4E4E7" stroke-opacity="0.8" stroke-miterlimit="10" stroke-linecap="round" stroke-linejoin="round"/>
<path d="M12.553 13.3311L12.7216 13.2037M12.7216 13.2037L13.0261 12.5864L14.9816 12C15.5388 12.3189 16.6785 12.9753 16.7794 13.0494C16.9055 13.142 16.8425 13.5432 17.0948 14.0062C17.3471 14.4691 17.8517 15.3333 17.9779 15.7037C18.0788 16 17.8097 16.6914 17.6625 17H16.054C15.8752 16.8663 15.4105 16.5988 14.9816 16.5988C14.5527 16.5988 13.8146 16.5988 13.4992 16.5988C13.3731 16.784 13.1586 16.9198 13.31 15.9815C12.5782 14.8951 12.2061 14.6029 12.1115 14.5926C12.0273 14.3251 11.9096 13.7593 12.1115 13.6358C12.3133 13.5123 12.6023 13.2963 12.7216 13.2037Z" stroke="#E4E4E7" stroke-opacity="0.8" stroke-width="0.5"/>
<path d="M18.553 19.3311L18.7216 19.2037M18.7216 19.2037L19.0261 18.5864L20.9816 18C21.5388 18.3189 22.6785 18.9753 22.7794 19.0494C22.9055 19.142 22.8425 19.5432 23.0948 20.0062C23.3471 20.4691 23.8517 21.3333 23.9779 21.7037C24.0788 22 23.8097 22.6914 23.6625 23H22.054C21.8752 22.8663 21.4105 22.5988 20.9816 22.5988C20.5527 22.5988 19.8146 22.5988 19.4992 22.5988C19.3731 22.784 19.1586 22.9198 19.31 21.9815C18.5782 20.8951 18.2061 20.6029 18.1115 20.5926C18.0273 20.3251 17.9096 19.7593 18.1115 19.6358C18.3133 19.5123 18.6023 19.2963 18.7216 19.2037Z" stroke="#E4E4E7" stroke-opacity="0.8" stroke-width="0.5"/>
</svg>
