<svg width="12" height="12" viewBox="0 0 12 12" fill="none" xmlns="http://www.w3.org/2000/svg">
<g opacity="0.75">
<path d="M10.2172 1.75547C7.88284 -0.585157 4.08518 -0.585157 1.75079 1.75547C-0.583597 4.09558 -0.583597 7.90441 1.75079 10.2445C2.91774 11.4151 4.45087 11.9999 5.984 11.9999C7.51713 11.9999 9.05028 11.4151 10.2172 10.2445C12.5516 7.90441 12.5516 4.09558 10.2172 1.75547ZM5.984 10.0019C5.7086 10.0019 5.4851 9.77782 5.4851 9.50169C5.4851 9.22556 5.7086 9.00146 5.984 9.00146C6.25939 9.00146 6.4829 9.22556 6.4829 9.50169C6.4829 9.77782 6.25939 10.0019 5.984 10.0019ZM6.48292 7.50072C6.48292 7.77685 6.25991 8.00095 5.98402 8.00095C5.70814 8.00095 5.48512 7.77685 5.48512 7.50072V2.49833C5.48512 2.2222 5.70814 1.9981 5.98402 1.9981C6.25991 1.9981 6.48292 2.2222 6.48292 2.49833V7.50072Z" fill="#CA8A3F"/>
</g>
</svg>