<svg width="30" height="30" viewBox="0 0 30 30" fill="none" xmlns="http://www.w3.org/2000/svg">
<rect opacity="0.6" width="30" height="30" rx="2" fill="#121212"/>
<path d="M15 14.1219C14.814 14.1219 14.6279 14.1942 14.4859 14.3386L7.21314 21.7375C6.92895 22.0266 6.92895 22.4947 7.21314 22.7837C7.49732 23.0726 7.9575 23.0728 8.2415 22.7837L15 15.9079L21.7586 22.7837C22.0428 23.0728 22.5029 23.0728 22.7869 22.7837C23.0709 22.4945 23.0711 22.0264 22.7869 21.7375L15.5142 14.3386C15.3722 14.1942 15.186 14.1219 15 14.1219Z" fill="white" fill-opacity="0.8"/>
<path d="M15 15.8786C14.814 15.8786 14.6279 15.8063 14.4859 15.6618L7.21314 8.26302C6.92895 7.97392 6.92895 7.50576 7.21314 7.21683C7.49732 6.92791 7.9575 6.92772 8.2415 7.21683L15 14.0926L21.7586 7.21683C22.0428 6.92772 22.5029 6.92772 22.7869 7.21683C23.0709 7.50594 23.0711 7.9741 22.7869 8.26302L15.5142 15.6618C15.3722 15.8063 15.186 15.8786 15 15.8786Z" fill="white" fill-opacity="0.8"/>
</svg>
