<svg width="27" height="27" viewBox="0 0 27 27" fill="none" xmlns="http://www.w3.org/2000/svg">
<path fill-rule="evenodd" clip-rule="evenodd" d="M1.92857 21.2143H5.78571V25.0714C5.78571 26.1321 6.65357 27 7.71429 27C8.775 27 9.64286 26.1321 9.64286 25.0714V19.2857C9.64286 18.225 8.775 17.3571 7.71429 17.3571H1.92857C0.867857 17.3571 0 18.225 0 19.2857C0 20.3464 0.867857 21.2143 1.92857 21.2143ZM5.78571 5.78571H1.92857C0.867857 5.78571 0 6.65357 0 7.71429C0 8.775 0.867857 9.64286 1.92857 9.64286H7.71429C8.775 9.64286 9.64286 8.775 9.64286 7.71429V1.92857C9.64286 0.867857 8.775 0 7.71429 0C6.65357 0 5.78571 0.867857 5.78571 1.92857V5.78571ZM19.2857 27C20.3464 27 21.2143 26.1321 21.2143 25.0714V21.2143H25.0714C26.1321 21.2143 27 20.3464 27 19.2857C27 18.225 26.1321 17.3571 25.0714 17.3571H19.2857C18.225 17.3571 17.3571 18.225 17.3571 19.2857V25.0714C17.3571 26.1321 18.225 27 19.2857 27ZM21.2143 5.78571V1.92857C21.2143 0.867857 20.3464 0 19.2857 0C18.225 0 17.3571 0.867857 17.3571 1.92857V7.71429C17.3571 8.775 18.225 9.64286 19.2857 9.64286H25.0714C26.1321 9.64286 27 8.775 27 7.71429C27 6.65357 26.1321 5.78571 25.0714 5.78571H21.2143Z" fill="#E4E4E7" fill-opacity="0.6"/>
</svg>