<svg width="14" height="14" viewBox="0 0 14 14" fill="none" xmlns="http://www.w3.org/2000/svg">
<path d="M0.546875 6.45312H6.45312V0.546875C6.45312 0.244836 6.69796 0 7 0C7.30204 0 7.54688 0.244836 7.54688 0.546875V6.45312H13.4531C13.7552 6.45312 14 6.69796 14 7C14 7.30204 13.7552 7.54688 13.4531 7.54688H7.54688V13.4531C7.54688 13.7552 7.30204 14 7 14C6.69796 14 6.45312 13.7552 6.45312 13.4531V7.54688H0.546875C0.244836 7.54688 0 7.30204 0 7C0 6.69796 0.244836 6.45312 0.546875 6.45312Z" fill="white" fill-opacity="0.8"/>
</svg>