<svg width="35" height="30" viewBox="0 0 35 30" fill="none" xmlns="http://www.w3.org/2000/svg">
<path d="M19.3363 1.82426C18.5459 0.542099 16.6755 0.560696 15.9107 1.85832L1.77713 25.8404C0.991387 27.1737 1.9526 28.8559 3.50016 28.8559H32.4176C33.983 28.8559 34.9415 27.1389 34.1201 25.8064L19.3363 1.82426Z" stroke="#E4E4E7" stroke-opacity="0.8" stroke-miterlimit="10" stroke-linecap="round" stroke-linejoin="round"/>
<path d="M13.106 14.9284L13.4432 14.6481M13.4432 14.6481L14.0522 13.2901L17.9632 12C19.0776 12.7016 21.3569 14.1457 21.5588 14.3086C21.8111 14.5123 21.6849 15.3951 22.1896 16.4136C22.6942 17.4321 23.7035 19.3333 23.9558 20.1481C24.1577 20.8 23.6194 22.321 23.325 23H20.1079C19.7505 22.7058 18.8211 22.1173 17.9632 22.1173C17.1053 22.1173 15.6292 22.1173 14.9984 22.1173C14.7461 22.5247 14.3172 22.8235 14.62 20.7593C13.1565 18.3691 12.4122 17.7263 12.2229 17.7037C12.0547 17.1152 11.8192 15.8704 12.2229 15.5988C12.6266 15.3272 13.2046 14.8519 13.4432 14.6481Z" stroke="#E4E4E7" stroke-opacity="0.8" stroke-width="0.5"/>
</svg>