<svg width="31" height="30" viewBox="0 0 31 30" fill="none" xmlns="http://www.w3.org/2000/svg">
<ellipse cx="15.5" cy="14.766" rx="15.5" ry="14.766" fill="#25262C"/>
<path d="M18.044 11.353V11.9765H21.0401L21.3179 13.1835C20.1106 13.4659 19.0228 13.8163 18.044 14.2128V14.8961C19.0561 14.4672 20.1859 14.0875 21.4569 13.7889L21.7927 15.2465C20.7605 16.2453 19.3391 18.004 18.4056 20.7042H14.27C13.7493 19.9056 13.0955 19.2846 12.3853 18.8158C13.3033 17.8027 14.5812 16.6985 16.3218 15.7315V15.0152C14.2901 16.0869 12.8423 17.3444 11.8365 18.4891C10.4559 17.7322 8.99543 17.4467 8.07174 17.3413L8.43456 15.7658C11.0368 15.0283 12.0128 13.2172 12.3727 11.9765H16.3218V11.353H8.8588L6.5625 21.3283H23.7847L21.4884 11.353H18.044ZM9.30715 11.9765H11.7854C11.4525 13.0083 10.6275 14.4011 8.59357 15.0775L9.30715 11.9765ZM7.29789 20.7048L7.93052 17.9579C8.7635 18.052 10.1264 18.3045 11.4261 18.9785C10.9042 19.6313 10.5282 20.226 10.2647 20.7048H7.29789ZM10.9622 20.7048C11.2142 20.2927 11.5489 19.8102 11.9766 19.2915C12.5564 19.6581 13.1029 20.12 13.5564 20.7048H10.9622ZM23.0493 20.7048H19.0279C19.8535 18.4585 21.032 16.9043 21.9551 15.9504L23.0493 20.7048Z" fill="#E4E4E7" fill-opacity="0.8"/>
<path d="M16.8961 16.9644H17.4701V10.0752C17.6728 10.0434 17.8651 9.98105 18.0442 9.88878C18.7216 9.53778 19.1923 8.79337 19.1923 7.9249C19.1923 6.71914 18.2933 5.74219 17.1831 5.74219C16.0728 5.74219 15.1738 6.71914 15.1738 7.92428C15.1738 8.79337 15.6446 9.53715 16.322 9.88816C16.5005 9.98043 16.6928 10.0428 16.8961 10.0746V16.9644ZM15.7479 7.92428C15.7479 7.06329 16.3903 6.36564 17.1831 6.36564C17.9759 6.36564 18.6183 7.06329 18.6183 7.92428C18.6183 8.78527 17.9759 9.48291 17.1831 9.48291C16.3903 9.48291 15.7479 8.78527 15.7479 7.92428Z" fill="#E4E4E7" fill-opacity="0.8"/>
</svg>
