<svg width="22" height="19" viewBox="0 0 22 19" fill="none" xmlns="http://www.w3.org/2000/svg">
<path d="M12.4937 2.82425C11.7033 1.5421 9.83288 1.5607 9.06814 2.85832L1.77713 15.2298C0.991388 16.5631 1.9526 18.2453 3.50016 18.2453H18.4176C19.983 18.2453 20.9415 16.5283 20.1201 15.1958L12.4937 2.82425Z" stroke="#E4E4E7" stroke-opacity="0.8" stroke-miterlimit="10" stroke-linecap="round" stroke-linejoin="round"/>
<path d="M7.67096 8.75803L7.77398 8.68018M7.77398 8.68018L7.96008 8.30295L9.15509 7.94458C9.49561 8.13948 10.1921 8.5406 10.2537 8.58587C10.3308 8.64245 10.2923 8.88765 10.4465 9.17057C10.6007 9.4535 10.9091 9.98162 10.9862 10.208C11.0478 10.389 10.8834 10.8115 10.7934 11.0001H9.81043C9.7012 10.9184 9.41723 10.7549 9.15509 10.7549C8.89296 10.7549 8.44194 10.7549 8.2492 10.7549C8.1721 10.8681 8.04103 10.9511 8.13355 10.3777C7.68638 9.71378 7.45894 9.53523 7.40112 9.52894C7.34972 9.36548 7.27776 9.01968 7.40112 8.94424C7.52448 8.86879 7.70109 8.73676 7.77398 8.68018Z" stroke="#E4E4E7" stroke-opacity="0.8" stroke-width="0.5"/>
<path d="M12.5606 12.4245L12.6636 12.3467M12.6636 12.3467L12.8497 11.9695L14.0447 11.6111C14.3853 11.806 15.0817 12.2071 15.1434 12.2524C15.2205 12.309 15.1819 12.5542 15.3361 12.8371C15.4903 13.12 15.7987 13.6481 15.8758 13.8745C15.9375 14.0555 15.773 14.478 15.6831 14.6666H14.7001C14.5909 14.5849 14.3069 14.4214 14.0447 14.4214C13.7826 14.4214 13.3316 14.4214 13.1388 14.4214C13.0617 14.5346 12.9307 14.6176 13.0232 14.0442C12.576 13.3803 12.3486 13.2017 12.2908 13.1954C12.2394 13.032 12.1674 12.6862 12.2908 12.6107C12.4141 12.5353 12.5907 12.4033 12.6636 12.3467Z" stroke="#E4E4E7" stroke-opacity="0.8" stroke-width="0.5"/>
<path d="M5.83795 13.6467L5.94097 13.5688M5.94097 13.5688L6.12707 13.1916L7.32209 12.8333C7.6626 13.0282 8.35905 13.4293 8.42073 13.4745C8.49783 13.5311 8.45928 13.7763 8.61348 14.0592C8.76767 14.3422 9.07606 14.8703 9.15316 15.0966C9.21484 15.2777 9.05036 15.7002 8.96042 15.8888H7.97742C7.8682 15.8071 7.58422 15.6436 7.32209 15.6436C7.05995 15.6436 6.60893 15.6436 6.41619 15.6436C6.33909 15.7568 6.20802 15.8398 6.30054 15.2664C5.85337 14.6025 5.62593 14.4239 5.56811 14.4176C5.51671 14.2541 5.44475 13.9084 5.56811 13.8329C5.69147 13.7575 5.86808 13.6254 5.94097 13.5688Z" stroke="#E4E4E7" stroke-opacity="0.8" stroke-width="0.5"/>
<path d="M10.0026 13.9327L10.0713 13.8859M10.0713 13.8859L10.1954 13.6596L10.9921 13.4446C11.2191 13.5615 11.6834 13.8022 11.7245 13.8294C11.7759 13.8633 11.7502 14.0104 11.853 14.1802C11.9558 14.3499 12.1614 14.6668 12.2128 14.8026C12.2539 14.9112 12.1443 15.1647 12.0843 15.2779H11.429C11.3561 15.2289 11.1668 15.1308 10.9921 15.1308C10.8173 15.1308 10.5166 15.1308 10.3881 15.1308C10.3367 15.1987 10.2494 15.2485 10.311 14.9045C10.0129 14.5061 9.8613 14.399 9.82275 14.3952C9.78849 14.2971 9.74051 14.0896 9.82275 14.0444C9.90499 13.9991 10.0227 13.9199 10.0713 13.8859Z" stroke="#E4E4E7" stroke-opacity="0.8" stroke-width="0.5"/>
<path d="M12.3916 9.04349L12.4431 8.99678M12.4431 8.99678L12.5362 8.77044L13.1337 8.55542C13.304 8.67236 13.6522 8.91303 13.683 8.94019C13.7216 8.97414 13.7023 9.12126 13.7794 9.29102C13.8565 9.46077 14.0107 9.77764 14.0492 9.91344C14.0801 10.0221 13.9978 10.2756 13.9529 10.3888H13.4614C13.4068 10.3397 13.2648 10.2416 13.1337 10.2416C13.0026 10.2416 12.7771 10.2416 12.6808 10.2416C12.6422 10.3095 12.5767 10.3593 12.6229 10.0153C12.3993 9.61694 12.2856 9.50981 12.2567 9.50604C12.231 9.40796 12.195 9.20048 12.2567 9.15521C12.3184 9.10995 12.4067 9.03073 12.4431 8.99678Z" stroke="#E4E4E7" stroke-opacity="0.8" stroke-width="0.5"/>
</svg>