<svg width="20" height="17" viewBox="0 0 20 17" fill="none" xmlns="http://www.w3.org/2000/svg">
<path d="M13.3333 6.12012V6.80012H16.8127L17.1353 8.1166C15.7333 8.42464 14.47 8.8068 13.3333 9.23928V9.98456C14.5087 9.51672 15.8207 9.1026 17.2967 8.77688L17.6867 10.3667C16.488 11.4561 14.8373 13.3744 13.7533 16.3194H8.95067C8.346 15.4484 7.58667 14.7711 6.762 14.2597C7.828 13.1547 9.312 11.9504 11.3333 10.8958V10.1144C8.974 11.2834 7.29267 12.6549 6.12467 13.9034C4.52133 13.0779 2.82533 12.7664 1.75267 12.6515L2.174 10.9332C5.196 10.1287 6.32933 8.15332 6.74733 6.80012H11.3333V6.12012H2.66667L0 17.0001H20L17.3333 6.12012H13.3333ZM3.18733 6.80012H6.06533C5.67867 7.92552 4.72067 9.44464 2.35867 10.1824L3.18733 6.80012ZM0.854 16.3201L1.58867 13.324C2.556 13.4267 4.13867 13.7021 5.648 14.4372C5.042 15.1492 4.60533 15.7979 4.29933 16.3201H0.854ZM5.10933 16.3201C5.402 15.8706 5.79067 15.3443 6.28733 14.7786C6.96067 15.1784 7.59533 15.6823 8.122 16.3201H5.10933ZM19.146 16.3201H14.476C15.4347 13.8701 16.8033 12.1748 17.8753 11.1344L19.146 16.3201Z" fill="#E4E4E7" fill-opacity="0.8"/>
<path d="M12 12.24H12.6667V4.726C12.902 4.69132 13.1253 4.62332 13.3333 4.52268C14.12 4.13984 14.6667 3.32792 14.6667 2.38068C14.6667 1.06556 13.6227 0 12.3333 0C11.044 0 10 1.06556 10 2.38C10 3.32792 10.5467 4.13916 11.3333 4.522C11.5407 4.62264 11.764 4.69064 12 4.72532V12.24ZM10.6667 2.38C10.6667 1.44092 11.4127 0.68 12.3333 0.68C13.254 0.68 14 1.44092 14 2.38C14 3.31908 13.254 4.08 12.3333 4.08C11.4127 4.08 10.6667 3.31908 10.6667 2.38Z" fill="#E4E4E7" fill-opacity="0.8"/>
</svg>
