<svg width="41" height="41" viewBox="0 0 41 41" fill="none" xmlns="http://www.w3.org/2000/svg">
<path d="M19.3353 0.495877L7.30433 12.4884C7.01223 12.8135 6.85567 13.2381 6.86676 13.675C6.87786 14.1119 7.05577 14.528 7.36399 14.8378C7.67221 15.1477 8.08735 15.3278 8.52419 15.3412C8.96103 15.3546 9.38643 15.2003 9.71308 14.9099L18.7587 5.89635V32.2517C18.7444 32.4847 18.778 32.7181 18.8573 32.9377C18.9367 33.1572 19.0601 33.3582 19.22 33.5282C19.38 33.6982 19.573 33.8337 19.7873 33.9264C20.0016 34.019 20.2325 34.0668 20.466 34.0668C20.6994 34.0668 20.9304 34.019 21.1446 33.9264C21.3589 33.8337 21.552 33.6982 21.7119 33.5282C21.8718 33.3582 21.9953 33.1572 22.0746 32.9377C22.1539 32.7181 22.1875 32.4847 22.1732 32.2517V5.76182L31.2125 14.9035C31.5331 15.2231 31.9673 15.4026 32.42 15.4026C32.8727 15.4026 33.307 15.2231 33.6276 14.9035C33.7887 14.7458 33.9165 14.5574 34.0034 14.3494C34.0903 14.1415 34.1346 13.9182 34.1337 13.6928C34.1337 13.2421 33.9565 12.8095 33.6404 12.4884L21.7825 0.502283C21.6236 0.343063 21.4349 0.216742 21.2271 0.130553C21.0193 0.0443643 20.7966 0 20.5717 0C20.3467 0 20.124 0.0443643 19.9163 0.130553C19.7085 0.216742 19.5198 0.343063 19.3609 0.502283L19.3353 0.495877Z" fill="#E4E4E7" fill-opacity="0.4"/>
<path d="M35.875 40.996H5.125C3.76577 40.996 2.4622 40.456 1.50108 39.4949C0.539954 38.5338 0 37.2302 0 35.871V23.9105C0.0266417 23.4758 0.21811 23.0676 0.535358 22.7692C0.852605 22.4708 1.27173 22.3047 1.70727 22.3047C2.1428 22.3047 2.56193 22.4708 2.87917 22.7692C3.19642 23.0676 3.38789 23.4758 3.41453 23.9105V35.871C3.41453 36.3246 3.59474 36.7597 3.91552 37.0805C4.23629 37.4013 4.67136 37.5815 5.125 37.5815H35.875C36.3286 37.5815 36.7637 37.4013 37.0845 37.0805C37.4053 36.7597 37.5855 36.3246 37.5855 35.871V23.9105C37.6121 23.4758 37.8036 23.0676 38.1208 22.7692C38.4381 22.4708 38.8572 22.3047 39.2927 22.3047C39.7283 22.3047 40.1474 22.4708 40.4646 22.7692C40.7819 23.0676 40.9734 23.4758 41 23.9105V35.871C41 37.2302 40.46 38.5338 39.4989 39.4949C38.5378 40.456 37.2342 40.996 35.875 40.996Z" fill="#E4E4E7" fill-opacity="0.4"/>
</svg>
